<svg width="60" height="60" viewBox="0 0 60 60" fill="none" xmlns="http://www.w3.org/2000/svg">
<rect x="0.5" y="0.5" width="59" height="59" rx="29.5" fill="#EBEBEB"/>
<rect x="0.5" y="0.5" width="59" height="59" rx="29.5" stroke="#052E17"/>
<g clip-path="url(#clip0_1_245)">
<path d="M30.2174 3.91304C15.6909 3.91304 3.91306 15.6909 3.91306 30.2174C3.91306 44.7438 15.6909 56.5217 30.2174 56.5217C44.7438 56.5217 56.5218 44.7438 56.5218 30.2174C56.5218 15.6909 44.7438 3.91304 30.2174 3.91304ZM39.9852 30.5152L25.189 39.3461C25.083 39.4105 24.9481 39.4136 24.839 39.3493C24.733 39.2883 24.6656 39.1744 24.6656 39.0475V30.2165V21.3854C24.6656 21.2602 24.733 21.1447 24.839 21.0835C24.9481 21.0209 25.083 21.0241 25.189 21.0867L39.9852 29.9194C40.0911 29.9796 40.1538 30.0959 40.1538 30.2164C40.1538 30.3394 40.0912 30.4534 39.9852 30.5152Z" fill="#052E17"/>
</g>
<defs>
<clipPath id="clip0_1_245">
<rect width="52.6087" height="52.6087" fill="white" transform="translate(3.91306 3.91304)"/>
</clipPath>
</defs>
</svg>
