<svg width="54" height="54" viewBox="0 0 54 54" fill="none" xmlns="http://www.w3.org/2000/svg">
<g clip-path="url(#clip0_1_67)">
<path d="M27.2174 0.913025C12.691 0.913025 0.913086 12.6909 0.913086 27.2174C0.913086 41.7437 12.691 53.5217 27.2174 53.5217C41.7438 53.5217 53.5218 41.7437 53.5218 27.2174C53.5218 12.6909 41.7438 0.913025 27.2174 0.913025ZM36.9852 27.5151L22.189 36.3461C22.0831 36.4104 21.9481 36.4136 21.839 36.3493C21.7331 36.2883 21.6657 36.1744 21.6657 36.0475V27.2164V18.3854C21.6657 18.2602 21.7331 18.1446 21.839 18.0835C21.9481 18.0209 22.0831 18.0241 22.189 18.0867L36.9852 26.9194C37.0911 26.9796 37.1538 27.0959 37.1538 27.2163C37.1538 27.3393 37.0912 27.4534 36.9852 27.5151Z" fill="#052E17"/>
</g>
<defs>
<clipPath id="clip0_1_67">
<rect width="52.6087" height="52.6087" fill="white" transform="translate(0.913086 0.913025)"/>
</clipPath>
</defs>
</svg>
