<svg width="20" height="20" viewBox="0 0 20 20" fill="none" xmlns="http://www.w3.org/2000/svg">
<path d="M18.8983 1.10172C18.4478 0.652374 17.8375 0.400024 17.2012 0.400024C16.5649 0.400024 15.9545 0.652374 15.5041 1.10172L15.405 1.19933H1.20049C0.988184 1.19933 0.784578 1.28366 0.634458 1.43377C0.484338 1.58388 0.400002 1.78747 0.400002 1.99976V18.7996C0.400002 19.0119 0.484338 19.2155 0.634458 19.3656C0.784578 19.5157 0.988184 19.6 1.20049 19.6H18.0016C18.2139 19.6 18.4176 19.5157 18.5677 19.3656C18.7178 19.2155 18.8021 19.0119 18.8021 18.7996V4.59174L18.8983 4.49563C19.3476 4.04519 19.6 3.43492 19.6 2.79868C19.6 2.16243 19.3476 1.55216 18.8983 1.10172ZM17.2072 6.19258V17.9992H1.99947V2.80318H13.807L7.84616 8.75904C6.76892 9.83636 6.12126 11.2693 6.02442 12.7897L6.01541 12.9278L6.00189 13.1471C5.99491 13.2563 6.0104 13.3658 6.04739 13.4688C6.08439 13.5717 6.14211 13.666 6.21699 13.7458C6.29186 13.8256 6.38231 13.8892 6.48274 13.9327C6.58317 13.9762 6.69144 13.9986 6.80087 13.9986C8.46192 13.9987 10.055 13.3391 11.2298 12.165L12.7677 10.6272L17.2072 6.19258Z" fill="white"/>
</svg>
